# Blender v2.72 (sub 0) OBJ File: 'mark_twain_huckleberry_finn.blend'
# www.blender.org
mtllib mark_twain_huckleberry_finn.mtl
v 0.064000 -0.101500 -0.006500
v 0.064000 -0.101500 0.006500
v -0.064000 -0.101500 0.006500
v -0.064000 -0.101500 -0.006500
v 0.064000 0.101500 -0.006500
v 0.064000 0.101500 0.006500
v -0.064000 0.101500 0.006500
v -0.064000 0.101500 -0.006500
vt 0.121054 0.485278
vt 0.107978 0.547782
vt 0.048861 0.578935
vt 0.120685 0.941308
vt 0.049810 0.940655
vt 0.083909 0.787928
vt 0.983458 0.763719
vt 0.923228 0.755643
vt 0.887938 0.599541
vt 0.828164 0.963672
vt 0.173056 0.969316
vt 0.168713 0.559985
vt 0.173174 0.523523
vt 0.173589 0.482404
vt 0.825864 0.479529
vt 0.177545 0.031568
vt 0.832214 0.030012
vt 0.834881 0.438986
vt 0.048077 0.464048
vt 0.131808 0.832666
vt 0.957234 0.628944
vt 0.823552 0.555486
vt 0.826525 0.518489
vt 0.181209 0.440763
vn 0.000000 -1.000000 0.000000
vn 0.000000 1.000000 0.000000
vn 1.000000 0.000000 0.000000
vn -0.000000 -0.000000 1.000000
vn -1.000000 -0.000000 -0.000000
vn 0.000000 0.000000 -1.000000
usemtl Material
s off
f 1/1/1 2/2/1 3/3/1
f 5/4/2 8/5/2 7/6/2
f 5/7/3 6/8/3 2/9/3
f 2/10/4 6/11/4 7/12/4
f 7/13/5 8/14/5 4/15/5
f 5/16/6 1/17/6 4/18/6
f 4/19/1 1/1/1 3/3/1
f 6/20/2 5/4/2 7/6/2
f 1/21/3 5/7/3 2/9/3
f 3/22/4 2/10/4 7/12/4
f 3/23/5 7/13/5 4/15/5
f 8/24/6 5/16/6 4/18/6
