# Blender v2.72 (sub 0) OBJ File: 'sharpie_accent_tank_style_highlighters.blend'
# www.blender.org
mtllib sharpie_accent_tank_style_highlighters.mtl
v 0.060000 -0.064000 -0.010000
v 0.060000 -0.064000 0.010000
v -0.060000 -0.064000 0.010000
v -0.060000 -0.064000 -0.010000
v 0.060000 0.064000 -0.010000
v 0.060000 0.064000 0.010000
v -0.060000 0.064000 0.010000
v -0.060000 0.064000 -0.010000
vt 0.905345 0.207281
vt 0.781686 0.278374
vt 0.772609 0.016038
vt 0.607949 0.238615
vt 0.587979 0.029630
vt 0.704949 0.032293
vt 0.723267 0.959736
vt 0.599881 0.961267
vt 0.611764 0.852070
vt 0.514366 0.276047
vt 0.509828 0.781930
vt 0.034750 0.778263
vt 0.915995 0.970121
vt 0.792983 0.967359
vt 0.809923 0.856715
vt 0.570178 0.375640
vt 0.963736 0.359715
vt 0.967384 0.774168
vt 0.897854 0.018009
vt 0.720615 0.172220
vt 0.697108 0.891347
vt 0.032658 0.280997
vt 0.918262 0.897838
vt 0.579137 0.777120
vn 0.000000 -1.000000 0.000000
vn 0.000000 1.000000 -0.000000
vn 1.000000 0.000000 0.000000
vn -0.000000 -0.000000 1.000000
vn -1.000000 -0.000000 -0.000000
vn 0.000000 0.000000 -1.000000
usemtl Material
s off
f 1/1/1 2/2/1 3/3/1
f 5/4/2 8/5/2 7/6/2
f 5/7/3 6/8/3 2/9/3
f 2/10/4 6/11/4 7/12/4
f 7/13/5 8/14/5 4/15/5
f 1/16/6 4/17/6 8/18/6
f 4/19/1 1/1/1 3/3/1
f 6/20/2 5/4/2 7/6/2
f 1/21/3 5/7/3 2/9/3
f 3/22/4 2/10/4 7/12/4
f 3/23/5 7/13/5 4/15/5
f 5/24/6 1/16/6 8/18/6
