# Blender v2.72 (sub 0) OBJ File: 'laugh_out_loud_joke_book.blend'
# www.blender.org
mtllib laugh_out_loud_joke_book.mtl
v 0.053500 -0.089000 -0.004000
v 0.053500 -0.089000 0.004000
v -0.053500 -0.089000 0.004000
v -0.053500 -0.089000 -0.004000
v 0.053500 0.089000 -0.004000
v 0.053500 0.089000 0.004000
v -0.053500 0.089000 0.004000
v -0.053500 0.089000 -0.004000
vt 0.096640 0.509692
vt 0.107978 0.547782
vt 0.048861 0.578935
vt 0.120685 0.941308
vt 0.049810 0.940655
vt 0.083909 0.787928
vt 0.983458 0.763719
vt 0.923228 0.755643
vt 0.887938 0.599541
vt 0.861367 0.975147
vt 0.157983 0.983773
vt 0.153025 0.560908
vt 0.159640 0.533981
vt 0.159440 0.502398
vt 0.862681 0.482824
vt 0.857116 0.027082
vt 0.859490 0.447512
vt 0.156294 0.449991
vt 0.048077 0.464048
vt 0.112277 0.828760
vt 0.957234 0.628944
vt 0.856106 0.554129
vt 0.863342 0.519651
vt 0.154292 0.028661
vn 0.000000 -1.000000 0.000000
vn 0.000000 1.000000 0.000000
vn 1.000000 0.000000 0.000000
vn -0.000000 -0.000000 1.000000
vn -1.000000 -0.000000 -0.000000
vn 0.000000 0.000000 -1.000000
usemtl Material
s off
f 1/1/1 2/2/1 3/3/1
f 5/4/2 8/5/2 7/6/2
f 5/7/3 6/8/3 2/9/3
f 2/10/4 6/11/4 7/12/4
f 7/13/5 8/14/5 4/15/5
f 1/16/6 4/17/6 8/18/6
f 4/19/1 1/1/1 3/3/1
f 6/20/2 5/4/2 7/6/2
f 1/21/3 5/7/3 2/9/3
f 3/22/4 2/10/4 7/12/4
f 3/23/5 7/13/5 4/15/5
f 5/24/6 1/16/6 8/18/6
