# Blender v2.72 (sub 0) OBJ File: 'oreo_mega_stuf.blend'
# www.blender.org
mtllib oreo_mega_stuf.mtl
v 0.087500 -0.075000 -0.022500
v 0.087500 -0.075000 0.022500
v -0.087500 -0.075000 0.022500
v -0.087500 -0.075000 -0.022500
v 0.087500 0.075000 -0.022500
v 0.087500 0.075000 0.022500
v -0.087500 0.075000 0.022500
v -0.087500 0.075000 -0.022500
vt 0.685570 0.458070
vt 0.335887 0.458678
vt 0.335194 0.364691
vt 0.686850 0.979015
vt 0.324197 0.981748
vt 0.327491 0.885151
vt 0.881636 0.806992
vt 0.778787 0.810354
vt 0.769652 0.526180
vt 0.693425 0.522290
vt 0.685524 0.828269
vt 0.330706 0.828881
vt 0.258539 0.812734
vt 0.149126 0.817210
vt 0.138053 0.531775
vt 0.318104 0.307073
vt 0.323517 0.022906
vt 0.668079 0.023702
vt 0.686950 0.362560
vt 0.688049 0.882740
vt 0.870974 0.522631
vt 0.337255 0.521937
vt 0.244374 0.527220
vt 0.662587 0.316197
vn 0.000000 -1.000000 -0.000000
vn 0.000000 1.000000 0.000000
vn 1.000000 0.000000 0.000000
vn -0.000000 -0.000000 1.000000
vn -1.000000 -0.000000 -0.000000
vn 0.000000 0.000000 -1.000000
usemtl Material
s off
f 2/1/1 3/2/1 4/3/1
f 5/4/2 8/5/2 7/6/2
f 5/7/3 6/8/3 2/9/3
f 2/10/4 6/11/4 7/12/4
f 7/13/5 8/14/5 4/15/5
f 5/16/6 1/17/6 4/18/6
f 1/19/1 2/1/1 4/3/1
f 6/20/2 5/4/2 7/6/2
f 1/21/3 5/7/3 2/9/3
f 3/22/4 2/10/4 7/12/4
f 3/23/5 7/13/5 4/15/5
f 8/24/6 5/16/6 4/18/6
