# Blender v2.72 (sub 0) OBJ File: 'safety_works_safety_glasses.blend'
# www.blender.org
mtllib safety_works_safety_glasses.mtl
v 0.047500 -0.090000 -0.025000
v 0.047500 -0.090000 0.025000
v -0.047500 -0.090000 0.025000
v -0.047500 -0.090000 -0.025000
v 0.047500 0.090000 -0.025000
v 0.047500 0.090000 0.025000
v -0.047500 0.090000 0.025000
v -0.047500 0.090000 -0.025000
vt 0.233924 0.026417
vt 0.239305 0.056756
vt 0.046227 0.047088
vt 0.120685 0.941308
vt 0.049810 0.940655
vt 0.066683 0.984910
vt 0.740370 0.030862
vt 0.547192 0.079064
vt 0.424207 0.039401
vt 0.397476 0.165451
vt 0.386060 0.766255
vt 0.047292 0.753921
vt 0.282105 0.915330
vt 0.305776 0.971673
vt 0.432930 0.939399
vt 0.558305 0.128902
vt 0.927319 0.135687
vt 0.903624 0.832840
vt 0.192148 0.039289
vt 0.141806 0.962872
vt 0.777411 0.077074
vt 0.067609 0.155802
vt 0.419986 0.905650
vt 0.547733 0.827161
vn 0.000000 -1.000000 0.000000
vn 0.000000 1.000000 -0.000000
vn 1.000000 0.000000 0.000000
vn -0.000000 -0.000000 1.000000
vn -1.000000 -0.000000 -0.000000
vn 0.000000 0.000000 -1.000000
usemtl Material
s off
f 1/1/1 2/2/1 3/3/1
f 5/4/2 8/5/2 7/6/2
f 5/7/3 6/8/3 2/9/3
f 2/10/4 6/11/4 7/12/4
f 7/13/5 8/14/5 4/15/5
f 1/16/6 4/17/6 8/18/6
f 4/19/1 1/1/1 3/3/1
f 6/20/2 5/4/2 7/6/2
f 1/21/3 5/7/3 2/9/3
f 3/22/4 2/10/4 7/12/4
f 3/23/5 7/13/5 4/15/5
f 5/24/6 1/16/6 8/18/6
