# Blender v2.72 (sub 0) OBJ File: 'mommys_helper_outlet_plugs.blend'
# www.blender.org
mtllib mommys_helper_outlet_plugs.mtl
v 0.046000 -0.095000 -0.023500
v 0.046000 -0.095000 -0.021500
v -0.046000 -0.095000 -0.021500
v -0.046000 -0.095000 -0.023500
v 0.046000 0.095000 -0.023500
v 0.046000 0.095000 -0.021500
v -0.046000 0.095000 -0.021500
v -0.046000 0.095000 -0.023500
vt 0.086231 0.053167
vt 0.017981 0.063216
vt 0.046227 0.047088
vt 0.005417 0.984345
vt 0.038958 0.982510
vt 0.066683 0.984910
vt 0.986640 0.032819
vt 0.950473 0.019773
vt 0.930066 0.051119
vt 0.458470 0.948934
vt 0.056349 0.942500
vt 0.105062 0.117688
vt 0.018434 0.828416
vt 0.009953 0.861553
vt 0.005115 0.904987
vt 0.540123 0.077507
vt 0.959560 0.080098
vt 0.953169 0.949307
vt 0.083750 0.057844
vt 0.082236 0.961896
vt 0.979228 0.050337
vt 0.482677 0.122605
vt 0.026569 0.777966
vt 0.537402 0.939233
vn 0.000000 -1.000000 0.000000
vn 0.000000 1.000000 -0.000000
vn 1.000000 0.000000 0.000000
vn 0.000000 0.000000 1.000000
vn -1.000000 -0.000000 -0.000000
vn 0.000000 0.000000 -1.000000
usemtl Material
s off
f 1/1/1 2/2/1 3/3/1
f 5/4/2 8/5/2 7/6/2
f 5/7/3 6/8/3 2/9/3
f 6/10/4 7/11/4 3/12/4
f 7/13/5 8/14/5 4/15/5
f 1/16/6 4/17/6 8/18/6
f 4/19/1 1/1/1 3/3/1
f 6/20/2 5/4/2 7/6/2
f 1/21/3 5/7/3 2/9/3
f 2/22/4 6/10/4 3/12/4
f 3/23/5 7/13/5 4/15/5
f 5/24/6 1/16/6 8/18/6
