# Blender v2.72 (sub 0) OBJ File: 'champion_copper_plus_spark_plug.blend'
# www.blender.org
mtllib champion_copper_plus_spark_plug.mtl
v 0.047500 -0.012000 -0.011000
v 0.047500 -0.012000 0.011000
v -0.047500 -0.012000 0.011000
v -0.047500 -0.012000 -0.011000
v 0.047500 0.012000 -0.011000
v 0.047500 0.012000 0.011000
v -0.047500 0.012000 0.011000
v -0.047500 0.012000 -0.011000
vt 0.777468 0.338246
vt 0.781002 0.464115
vt 0.244493 0.475582
vt 0.772788 0.905773
vt 0.236725 0.901887
vt 0.240894 0.790253
vt 0.970232 0.736408
vt 0.852734 0.738723
vt 0.851714 0.603576
vt 0.779735 0.606228
vt 0.778468 0.743997
vt 0.239180 0.740130
vt 0.145057 0.726192
vt 0.029854 0.723918
vt 0.031189 0.586060
vt 0.786117 0.282272
vt 0.242758 0.272646
vt 0.244882 0.133473
vt 0.243094 0.360080
vt 0.774429 0.790424
vt 0.966940 0.599919
vt 0.239901 0.598179
vt 0.148772 0.590666
vt 0.785974 0.143226
vn 0.000000 -1.000000 0.000000
vn 0.000000 1.000000 -0.000000
vn 1.000000 0.000000 0.000000
vn -0.000000 -0.000000 1.000000
vn -1.000000 -0.000000 -0.000000
vn 0.000000 0.000000 -1.000000
usemtl Material
s off
f 1/1/1 2/2/1 3/3/1
f 5/4/2 8/5/2 7/6/2
f 5/7/3 6/8/3 2/9/3
f 2/10/4 6/11/4 7/12/4
f 7/13/5 8/14/5 4/15/5
f 1/16/6 4/17/6 8/18/6
f 4/19/1 1/1/1 3/3/1
f 6/20/2 5/4/2 7/6/2
f 1/21/3 5/7/3 2/9/3
f 3/22/4 2/10/4 7/12/4
f 3/23/5 7/13/5 4/15/5
f 5/24/6 1/16/6 8/18/6
