# Blender v2.72 (sub 0) OBJ File: 'cheezit_big_original.blend'
# www.blender.org
mtllib cheezit_big_original.mtl
v 0.080000 -0.114000 -0.030000
v 0.080000 -0.114000 0.030000
v -0.080000 -0.114000 0.030000
v -0.080000 -0.114000 -0.030000
v 0.080000 0.114000 -0.030000
v 0.080000 0.114000 0.030000
v -0.080000 0.114000 0.030000
v -0.080000 0.114000 -0.030000
vt 0.503845 0.169689
vt 0.504418 0.289125
vt 0.198192 0.292175
vt 0.498374 0.903820
vt 0.192361 0.910459
vt 0.192237 0.792377
vt 0.650408 0.761311
vt 0.533887 0.763137
vt 0.528053 0.324093
vt 0.501043 0.320142
vt 0.503883 0.760398
vt 0.196428 0.762963
vt 0.164789 0.759023
vt 0.050981 0.763988
vt 0.035513 0.323767
vt 0.673673 0.326187
vt 0.980063 0.327822
vt 0.978769 0.771168
vt 0.192127 0.177680
vt 0.498108 0.788502
vt 0.645016 0.326140
vt 0.192236 0.320277
vt 0.151112 0.321165
vt 0.671228 0.766273
vn 0.000000 -1.000000 0.000000
vn 0.000000 1.000000 -0.000000
vn 1.000000 0.000000 0.000000
vn -0.000000 -0.000000 1.000000
vn -1.000000 -0.000000 -0.000000
vn 0.000000 0.000000 -1.000000
usemtl Material
s off
f 1/1/1 2/2/1 3/3/1
f 5/4/2 8/5/2 7/6/2
f 5/7/3 6/8/3 2/9/3
f 2/10/4 6/11/4 7/12/4
f 7/13/5 8/14/5 4/15/5
f 1/16/6 4/17/6 8/18/6
f 4/19/1 1/1/1 3/3/1
f 6/20/2 5/4/2 7/6/2
f 1/21/3 5/7/3 2/9/3
f 3/22/4 2/10/4 7/12/4
f 3/23/5 7/13/5 4/15/5
f 5/24/6 1/16/6 8/18/6
