# Blender v2.62 (sub 0) OBJ File: 'cookie_crisp.blend'
# www.blender.org
mtllib cookie_crisp.mtl
o Cube.001
v 0.000003 -73.500000 7.006302
v -48.499969 -73.500000 13.499990
v 48.499989 -73.500000 13.499993
v -0.829744 -73.500000 6.924580
v 0.537116 -73.500000 6.953401
v -1.366857 -73.500000 6.871679
v 6.871679 -73.500000 -1.366853
v 6.953401 -73.500000 -0.537104
v 7.006302 -73.500000 0.000009
v 6.924578 -73.500000 0.829756
v 6.871676 -73.500000 1.366869
v 3.892499 -73.500000 -5.825523
v 4.537006 -73.500000 -5.296587
v 4.954210 -73.500000 -4.954198
v 5.825532 -73.500000 -3.892486
v 6.218564 -73.500000 -3.157171
v 6.472982 -73.500000 -2.681188
v 1.366869 -73.500000 -6.871677
v 2.164731 -73.500000 -6.629646
v 2.681203 -73.500000 -6.472976
v 6.472977 -73.500000 2.681201
v 6.079943 -73.500000 3.416512
v 5.825525 -73.500000 3.892496
v 6.715010 -73.500000 -1.883325
v 3.416516 -73.500000 -6.079941
v 5.483142 -73.500000 -4.309689
v 0.000007 -73.500000 -7.006302
v 0.829756 -73.500000 -6.924577
v 6.629647 -73.500000 2.164729
v 5.296591 -73.500000 4.537003
v 4.954202 -73.500000 4.954206
v 1.366863 -73.500000 6.871678
v -2.164718 -73.500000 6.629652
v -2.681190 -73.500000 6.472981
v -48.499947 -73.500000 -13.499998
v 2.681196 -73.500000 6.472979
v 48.499989 -73.500000 -13.499993
v 3.892492 -73.500000 5.825528
v -3.416503 -73.500000 6.079950
v -3.892487 -73.500000 5.825531
v -4.536994 -73.500000 5.296600
v -4.954197 -73.500000 4.954210
v -5.483132 -73.500000 4.309705
v -5.825522 -73.500000 3.892502
v -6.218557 -73.500000 3.157191
v -6.472975 -73.500000 2.681207
v -6.715006 -73.500000 1.883347
v -6.871675 -73.500000 1.366875
v -6.953402 -73.500000 0.537128
v -7.006302 -73.500000 0.000015
v -6.924583 -73.500000 -0.829733
v -6.871681 -73.500000 -1.366846
v -6.629657 -73.500000 -2.164707
v -6.472986 -73.500000 -2.681179
v -6.079957 -73.500000 -3.416494
v -5.825538 -73.500000 -3.892477
v -5.296609 -73.500000 -4.536986
v -4.954218 -73.500000 -4.954190
v -4.309715 -73.500000 -5.483126
v -3.892511 -73.500000 -5.825515
v -3.157201 -73.500000 -6.218552
v -2.681217 -73.500000 -6.472970
v -1.883359 -73.500000 -6.715003
v -1.366886 -73.500000 -6.871673
v -0.537102 -73.500000 -6.953403
v 48.499958 73.500000 13.500000
v 48.500011 73.500000 -13.499987
v -48.499969 73.500000 -13.499993
v -48.499989 73.500000 13.499987
v -49.999985 -75.000000 14.999990
v -49.999962 -75.000000 -14.999998
v -7.006302 -75.000000 0.000011
v -6.938991 -75.000000 0.683442
v -6.938993 -75.000000 -0.683419
v -6.871681 -75.000000 -1.366850
v -6.871675 -75.000000 1.366871
v 7.006302 -75.000000 0.000008
v 6.938990 -75.000000 -0.683423
v 6.871679 -75.000000 -1.366854
v 6.871677 -75.000000 1.366868
v 6.938989 -75.000000 0.683437
v 4.954209 -75.000000 -4.954199
v 4.423353 -75.000000 -5.389861
v 3.892498 -75.000000 -5.825523
v 6.472982 -75.000000 -2.681189
v 6.149256 -75.000000 -3.286837
v 5.825531 -75.000000 -3.892487
v 2.681202 -75.000000 -6.472977
v 2.024035 -75.000000 -6.672326
v 1.366868 -75.000000 -6.871677
v 5.825525 -75.000000 3.892496
v 6.149251 -75.000000 3.286847
v 6.472978 -75.000000 2.681200
v 6.672330 -75.000000 -2.024021
v 3.286850 -75.000000 -6.149250
v 5.389870 -75.000000 -4.423342
v 0.683437 -75.000000 -6.938989
v 0.000006 -75.000000 -7.006302
v 6.672327 -75.000000 2.024033
v 4.954202 -75.000000 4.954206
v 5.389864 -75.000000 4.423350
v -6.672335 -75.000000 -2.024016
v -6.672328 -75.000000 2.024039
v -6.472976 -75.000000 2.681204
v -6.149250 -75.000000 3.286853
v -5.825523 -75.000000 3.892499
v -5.389861 -75.000000 4.423355
v -4.954199 -75.000000 4.954208
v -4.423344 -75.000000 5.389871
v -3.892488 -75.000000 5.825530
v -3.286840 -75.000000 6.149257
v -2.681192 -75.000000 6.472981
v -2.024025 -75.000000 6.672331
v -1.366859 -75.000000 6.871678
v 49.999985 -75.000000 14.999993
v -6.472984 -75.000000 -2.681183
v -0.683428 -75.000000 6.938991
v 0.000002 -75.000000 7.006302
v 0.683433 -75.000000 6.938990
v 1.366863 -75.000000 6.871678
v 2.681196 -75.000000 6.472979
v 49.999985 -75.000000 -14.999993
v -6.149261 -75.000000 -3.286832
v 3.892492 -75.000000 5.825528
v -5.825535 -75.000000 -3.892481
v -0.683420 -75.000000 -6.938991
v -1.366880 -75.000000 -6.871675
v -2.024048 -75.000000 -6.672326
v -2.681212 -75.000000 -6.472972
v -3.286861 -75.000000 -6.149248
v -3.892507 -75.000000 -5.825518
v -4.423363 -75.000000 -5.389857
v -4.954215 -75.000000 -4.954193
v -5.389878 -75.000000 -4.423338
v 50.000008 75.000000 -14.999987
v 49.999950 75.000000 15.000003
v -49.999996 75.000000 14.999989
v -49.999973 75.000000 -14.999993
vt 0.532556 0.085063
vt 0.531112 0.088000
vt 0.387473 0.022338
vt 0.534001 0.082127
vt 0.535751 0.079731
vt 0.537501 0.077334
vt 0.539491 0.075571
vt 0.541481 0.073807
vt 0.543633 0.072743
vt 0.545786 0.071680
vt 0.548019 0.071357
vt 0.550251 0.071034
vt 0.713714 0.030258
vt 0.554705 0.071896
vt 0.530030 0.091364
vt 0.558975 0.074232
vt 0.556840 0.073064
vt 0.566326 0.082911
vt 0.564613 0.080431
vt 0.562899 0.077951
vt 0.571183 0.095753
vt 0.570153 0.092338
vt 0.569123 0.088922
vt 0.572809 0.110800
vt 0.572618 0.106970
vt 0.572428 0.103140
vt 0.570950 0.125826
vt 0.571632 0.122103
vt 0.572311 0.118439
vt 0.565883 0.138659
vt 0.567330 0.135666
vt 0.568778 0.132674
vt 0.712429 0.198153
vt 0.558390 0.147166
vt 0.562375 0.143553
vt 0.528948 0.094727
vt 0.554081 0.149361
vt 0.549613 0.150053
vt 0.551847 0.149707
vt 0.545158 0.149214
vt 0.547385 0.149633
vt 0.528270 0.098390
vt 0.386024 0.192786
vt 0.540887 0.146878
vt 0.543022 0.148046
vt 0.538926 0.145007
vt 0.536965 0.143135
vt 0.535253 0.140631
vt 0.533541 0.138127
vt 0.532145 0.135088
vt 0.530748 0.132048
vt 0.529721 0.128590
vt 0.528693 0.125132
vt 0.528075 0.121387
vt 0.527456 0.117643
vt 0.527588 0.102111
vt 0.569864 0.129250
vt 0.567724 0.085917
vt 0.571806 0.099446
vt 0.560937 0.076091
vt 0.552478 0.071465
vt 0.572560 0.114620
vt 0.527269 0.113756
vt 0.527335 0.105990
vt 0.527082 0.109869
vt 0.338834 0.020285
vt 0.340683 0.186317
vt 0.013624 0.190855
vt 0.010822 0.019532
vt 0.831429 0.240892
vt 0.836079 0.968555
vt 0.730708 0.968188
vt 0.727845 0.243645
vt 0.338554 0.256590
vt 0.338584 0.986103
vt 0.010462 0.983783
vt 0.010993 0.254342
vt 0.988620 0.222955
vt 0.984183 0.950607
vt 0.879370 0.950460
vt 0.882343 0.220919
vt 0.377366 0.979198
vt 0.379636 0.249242
vt 0.705204 0.246268
vt 0.704163 0.980334
vt 0.439943 0.644167
vt 0.445396 0.668037
vt 0.448926 0.683489
vt 0.000000 0.000000
vt 0.429158 0.550625
vt 0.431653 0.580175
vt 0.433268 0.599304
vt 0.429158 0.449376
vt 0.428316 0.480107
vt 0.427770 0.500000
vt 0.439943 0.355834
vt 0.435891 0.383068
vt 0.433268 0.400697
vt 0.459871 0.284240
vt 0.453227 0.303830
vt 0.448926 0.316511
vt 0.485909 0.245493
vt 0.477683 0.254458
vt 0.472359 0.260260
vt 0.505537 0.242467
vt 0.500000 0.240507
vt 1.000000 0.000000
vt 0.514092 0.245494
vt 0.459871 0.715760
vt 0.519416 0.251296
vt 0.527642 0.260260
vt 0.532549 0.269683
vt 0.540129 0.284240
vt 0.544430 0.296921
vt 0.551075 0.316512
vt 0.554605 0.331964
vt 0.560057 0.355834
vt 0.562680 0.373463
vt 0.566732 0.400697
vt 0.568347 0.419826
vt 0.570842 0.449376
vt 0.571388 0.469269
vt 0.572230 0.500001
vt 0.571685 0.519894
vt 0.570842 0.550625
vt 0.569227 0.569754
vt 0.566732 0.599304
vt 0.564109 0.616933
vt 0.560057 0.644167
vt 0.556527 0.659619
vt 0.551074 0.683489
vt 0.546773 0.696171
vt 0.540129 0.715761
vt 0.535222 0.725183
vt 1.000000 1.000000
vt 0.527641 0.739740
vt 0.472359 0.739740
vt 0.000000 1.000000
vt 0.485909 0.754507
vt 0.514091 0.754507
vt 0.522317 0.745543
vt 0.494463 0.757534
vt 0.500000 0.759493
vt 0.428613 0.530732
vt 0.443473 0.340382
vt 0.430773 0.430247
vt 0.491446 0.243534
vt 0.464778 0.274817
vt 0.437320 0.626538
vt 0.508554 0.756466
vn 0.000000 -1.000000 0.000000
vn 0.000000 1.000000 0.000000
vn 1.000000 0.000000 0.000001
vn -0.000000 -0.000000 1.000000
vn -1.000000 -0.000000 -0.000001
vn 0.000000 0.000000 -1.000000
vn -0.098016 -0.000000 0.995185
vn -0.098019 0.000000 0.995185
vn -0.290285 -0.000000 0.956940
vn -0.290287 0.000000 0.956940
vn -0.471397 0.000000 0.881921
vn -0.471398 0.000000 0.881920
vn -0.634393 -0.000000 0.773011
vn -0.634395 0.000000 0.773009
vn -0.773011 -0.000000 0.634393
vn -0.773012 0.000000 0.634392
vn -0.881921 -0.000000 0.471397
vn -0.881922 0.000000 0.471394
vn -0.956941 -0.000000 0.290284
vn -0.956941 0.000000 0.290283
vn -0.995185 -0.000000 0.098017
vn -0.995185 -0.000000 0.098015
vn -0.995185 -0.000000 -0.098018
vn -0.956940 -0.000000 -0.290285
vn -0.956940 0.000000 -0.290286
vn -0.881921 -0.000000 -0.471396
vn -0.881921 -0.000000 -0.471398
vn -0.773010 -0.000000 -0.634394
vn -0.634393 0.000000 -0.773011
vn -0.471397 0.000000 -0.881921
vn -0.290285 0.000000 -0.956940
vn -0.098017 -0.000000 -0.995185
vn 0.098017 0.000000 -0.995185
vn 0.098016 -0.000000 -0.995185
vn 0.290283 -0.000000 -0.956941
vn 0.290285 -0.000000 -0.956940
vn 0.471395 -0.000000 -0.881922
vn 0.471397 0.000000 -0.881921
vn 0.634391 -0.000000 -0.773012
vn 0.634394 0.000000 -0.773010
vn 0.773009 0.000000 -0.634395
vn 0.773010 0.000000 -0.634393
vn 0.881920 0.000000 -0.471399
vn 0.881921 0.000000 -0.471397
vn 0.956939 -0.000000 -0.290288
vn 0.956941 0.000000 -0.290283
vn 0.995184 0.000000 -0.098021
vn 0.995185 0.000000 -0.098016
vn 0.995185 -0.000000 0.098012
vn 0.995185 0.000000 0.098018
vn 0.956942 -0.000001 0.290280
vn 0.956940 0.000000 0.290286
vn 0.881924 0.000000 0.471392
vn 0.881921 0.000000 0.471398
vn 0.773014 -0.000001 0.634388
vn 0.773010 0.000000 0.634394
vn 0.634398 -0.000000 0.773007
vn 0.634392 0.000001 0.773012
vn 0.471402 -0.000000 0.881918
vn 0.471395 0.000000 0.881922
vn 0.290291 -0.000000 0.956938
vn 0.290283 0.000000 0.956941
vn 0.098020 -0.000000 0.995184
vn 0.098016 0.000000 0.995185
usemtl Material_cookie_crips_texture.jpg
s off
f 134/1/1 125/2/1 71/3/1
f 71/3/1 133/4/1 134/1/1
f 71/3/1 132/5/1 133/4/1
f 71/3/1 131/6/1 132/5/1
f 71/3/1 130/7/1 131/6/1
f 71/3/1 129/8/1 130/7/1
f 71/3/1 128/9/1 129/8/1
f 71/3/1 127/10/1 128/9/1
f 71/3/1 126/11/1 127/10/1
f 71/3/1 98/12/1 126/11/1
f 71/3/1 122/13/1 90/14/1
f 71/3/1 90/14/1 98/12/1
f 125/2/1 123/15/1 71/3/1
f 88/16/1 89/17/1 90/14/1
f 88/16/1 90/14/1 122/13/1
f 82/18/1 83/19/1 84/20/1
f 82/18/1 84/20/1 122/13/1
f 85/21/1 86/22/1 87/23/1
f 85/21/1 87/23/1 122/13/1
f 77/24/1 78/25/1 79/26/1
f 77/24/1 79/26/1 122/13/1
f 93/27/1 99/28/1 80/29/1
f 93/27/1 80/29/1 122/13/1
f 100/30/1 101/31/1 91/32/1
f 100/30/1 91/32/1 122/13/1
f 122/13/1 115/33/1 121/34/1
f 122/13/1 121/34/1 124/35/1
f 123/15/1 116/36/1 71/3/1
f 115/33/1 120/37/1 121/34/1
f 115/33/1 118/38/1 119/39/1
f 115/33/1 119/39/1 120/37/1
f 115/33/1 114/40/1 117/41/1
f 115/33/1 117/41/1 118/38/1
f 116/36/1 102/42/1 71/3/1
f 115/33/1 70/43/1 114/40/1
f 70/43/1 112/44/1 113/45/1
f 70/43/1 113/45/1 114/40/1
f 70/43/1 111/46/1 112/44/1
f 70/43/1 110/47/1 111/46/1
f 70/43/1 109/48/1 110/47/1
f 70/43/1 108/49/1 109/48/1
f 70/43/1 107/50/1 108/49/1
f 70/43/1 106/51/1 107/50/1
f 70/43/1 105/52/1 106/51/1
f 70/43/1 104/53/1 105/52/1
f 70/43/1 103/54/1 104/53/1
f 70/43/1 76/55/1 103/54/1
f 102/42/1 75/56/1 71/3/1
f 122/13/1 124/35/1 100/30/1
f 91/32/1 92/57/1 93/27/1
f 91/32/1 93/27/1 122/13/1
f 87/23/1 96/58/1 82/18/1
f 87/23/1 82/18/1 122/13/1
f 79/26/1 94/59/1 85/21/1
f 79/26/1 85/21/1 122/13/1
f 84/20/1 95/60/1 88/16/1
f 84/20/1 88/16/1 122/13/1
f 90/14/1 97/61/1 98/12/1
f 80/29/1 81/62/1 77/24/1
f 80/29/1 77/24/1 122/13/1
f 70/43/1 73/63/1 76/55/1
f 75/56/1 74/64/1 71/3/1
f 72/65/1 70/43/1 71/3/1
f 72/65/1 71/3/1 74/64/1
f 70/43/1 72/65/1 73/63/1
f 138/66/2 137/67/2 136/68/2
f 138/66/2 136/68/2 135/69/2
f 122/70/3 135/71/3 136/72/3
f 122/70/3 136/72/3 115/73/3
f 115/74/4 136/75/4 137/76/4
f 115/74/4 137/76/4 70/77/4
f 70/78/5 137/79/5 138/80/5
f 70/78/5 138/80/5 71/81/5
f 135/82/6 122/83/6 71/84/6
f 135/82/6 71/84/6 138/85/6
usemtl Material
f 23/86/2 30/87/2 31/88/2
f 23/86/2 31/88/2 37/89/2
f 11/90/2 29/91/2 21/92/2
f 11/90/2 21/92/2 37/89/2
f 7/93/2 8/94/2 9/95/2
f 7/93/2 9/95/2 37/89/2
f 15/96/2 16/97/2 17/98/2
f 15/96/2 17/98/2 37/89/2
f 12/99/2 13/100/2 14/101/2
f 12/99/2 14/101/2 37/89/2
f 18/102/2 19/103/2 20/104/2
f 18/102/2 20/104/2 37/89/2
f 37/89/2 65/105/2 27/106/2
f 37/89/2 35/107/2 64/108/2
f 37/89/2 64/108/2 65/105/2
f 31/88/2 38/109/2 37/89/2
f 35/107/2 63/110/2 64/108/2
f 35/107/2 62/111/2 63/110/2
f 35/107/2 61/112/2 62/111/2
f 35/107/2 60/113/2 61/112/2
f 35/107/2 59/114/2 60/113/2
f 35/107/2 58/115/2 59/114/2
f 35/107/2 57/116/2 58/115/2
f 35/107/2 56/117/2 57/116/2
f 35/107/2 55/118/2 56/117/2
f 35/107/2 54/119/2 55/118/2
f 35/107/2 53/120/2 54/119/2
f 35/107/2 52/121/2 53/120/2
f 35/107/2 51/122/2 52/121/2
f 35/107/2 50/123/2 51/122/2
f 35/107/2 49/124/2 50/123/2
f 35/107/2 48/125/2 49/124/2
f 35/107/2 47/126/2 48/125/2
f 35/107/2 46/127/2 47/126/2
f 35/107/2 45/128/2 46/127/2
f 35/107/2 44/129/2 45/128/2
f 35/107/2 43/130/2 44/129/2
f 35/107/2 42/131/2 43/130/2
f 35/107/2 41/132/2 42/131/2
f 35/107/2 40/133/2 41/132/2
f 35/107/2 39/134/2 40/133/2
f 35/107/2 2/135/2 34/136/2
f 35/107/2 34/136/2 39/134/2
f 36/137/2 3/138/2 37/89/2
f 36/137/2 37/89/2 38/109/2
f 36/137/2 32/139/2 3/138/2
f 2/135/2 6/140/2 33/141/2
f 2/135/2 33/141/2 34/136/2
f 5/142/2 1/143/2 3/138/2
f 5/142/2 3/138/2 32/139/2
f 9/95/2 10/144/2 11/90/2
f 9/95/2 11/90/2 37/89/2
f 14/101/2 26/145/2 15/96/2
f 14/101/2 15/96/2 37/89/2
f 17/98/2 24/146/2 7/93/2
f 17/98/2 7/93/2 37/89/2
f 27/106/2 28/147/2 18/102/2
f 27/106/2 18/102/2 37/89/2
f 20/104/2 25/148/2 12/99/2
f 20/104/2 12/99/2 37/89/2
f 21/92/2 22/149/2 23/86/2
f 21/92/2 23/86/2 37/89/2
f 2/135/2 1/143/2 4/150/2
f 2/135/2 4/150/2 6/140/2
f 1/143/2 2/135/2 3/138/2
f 66/107/1 69/135/1 68/138/1
f 66/107/1 68/138/1 67/89/1
f 37/89/5 3/107/5 66/135/5
f 37/89/5 66/135/5 67/138/5
f 3/89/6 2/107/6 69/135/6
f 3/89/6 69/135/6 66/138/6
f 2/89/3 35/107/3 68/135/3
f 2/89/3 68/135/3 69/138/3
f 35/89/4 37/107/4 67/135/4
f 35/89/4 67/135/4 68/138/4
f 90/89/7 18/107/7 28/135/7
f 90/89/7 28/135/7 97/138/7
f 97/89/8 28/107/8 27/135/8
f 97/89/8 27/135/8 98/138/8
f 88/89/9 20/107/9 19/135/9
f 88/89/9 19/135/9 89/138/9
f 89/89/10 19/107/10 18/135/10
f 89/89/10 18/135/10 90/138/10
f 84/89/11 12/107/11 25/135/11
f 84/89/11 25/135/11 95/138/11
f 95/89/12 25/107/12 20/135/12
f 95/89/12 20/135/12 88/138/12
f 82/89/13 14/107/13 13/135/13
f 82/89/13 13/135/13 83/138/13
f 83/89/14 13/107/14 12/135/14
f 83/89/14 12/135/14 84/138/14
f 87/89/15 15/107/15 26/135/15
f 87/89/15 26/135/15 96/138/15
f 96/89/16 26/107/16 14/135/16
f 96/89/16 14/135/16 82/138/16
f 85/89/17 17/107/17 16/135/17
f 85/89/17 16/135/17 86/138/17
f 86/89/18 16/107/18 15/135/18
f 86/89/18 15/135/18 87/138/18
f 79/89/19 7/107/19 24/135/19
f 79/89/19 24/135/19 94/138/19
f 94/89/20 24/107/20 17/135/20
f 94/89/20 17/135/20 85/138/20
f 77/89/21 9/107/21 8/135/21
f 77/89/21 8/135/21 78/138/21
f 78/89/22 8/107/22 7/135/22
f 78/89/22 7/135/22 79/138/22
f 80/89/23 11/107/23 10/135/23
f 80/89/23 10/135/23 81/138/23
f 81/89/23 10/107/23 9/135/23
f 81/89/23 9/135/23 77/138/23
f 93/89/24 21/107/24 29/135/24
f 93/89/24 29/135/24 99/138/24
f 99/89/25 29/107/25 11/135/25
f 99/89/25 11/135/25 80/138/25
f 91/89/26 23/107/26 22/135/26
f 91/89/26 22/135/26 92/138/26
f 92/89/27 22/107/27 21/135/27
f 92/89/27 21/135/27 93/138/27
f 100/89/28 31/107/28 30/135/28
f 100/89/28 30/135/28 101/138/28
f 101/89/28 30/107/28 23/135/28
f 101/89/28 23/135/28 91/138/28
f 124/89/29 38/107/29 31/135/29
f 124/89/29 31/135/29 100/138/29
f 124/89/30 121/107/30 36/135/30
f 124/89/30 36/135/30 38/138/30
f 121/89/31 120/107/31 32/135/31
f 121/89/31 32/135/31 36/138/31
f 118/89/32 1/107/32 5/135/32
f 118/89/32 5/135/32 119/138/32
f 119/89/32 5/107/32 32/135/32
f 119/89/32 32/135/32 120/138/32
f 114/89/33 6/107/33 4/135/33
f 114/89/33 4/135/33 117/138/33
f 1/135/34 118/138/34 117/89/34
f 1/135/34 117/89/34 4/107/34
f 113/89/35 33/107/35 6/135/35
f 113/89/35 6/135/35 114/138/35
f 112/89/36 34/107/36 33/135/36
f 112/89/36 33/135/36 113/138/36
f 111/89/37 39/107/37 34/135/37
f 111/89/37 34/135/37 112/138/37
f 110/89/38 40/107/38 39/135/38
f 110/89/38 39/135/38 111/138/38
f 109/89/39 41/107/39 40/135/39
f 109/89/39 40/135/39 110/138/39
f 108/89/40 42/107/40 41/135/40
f 108/89/40 41/135/40 109/138/40
f 107/89/41 43/107/41 42/135/41
f 107/89/41 42/135/41 108/138/41
f 106/89/42 44/107/42 43/135/42
f 106/89/42 43/135/42 107/138/42
f 105/89/43 45/107/43 44/135/43
f 105/89/43 44/135/43 106/138/43
f 104/89/44 46/107/44 45/135/44
f 104/89/44 45/135/44 105/138/44
f 103/89/45 47/107/45 46/135/45
f 103/89/45 46/135/45 104/138/45
f 76/89/46 48/107/46 47/135/46
f 76/89/46 47/135/46 103/138/46
f 73/89/47 49/107/47 48/135/47
f 73/89/47 48/135/47 76/138/47
f 72/89/48 50/107/48 49/135/48
f 72/89/48 49/135/48 73/138/48
f 74/89/49 51/107/49 50/135/49
f 74/89/49 50/135/49 72/138/49
f 75/89/50 52/107/50 51/135/50
f 75/89/50 51/135/50 74/138/50
f 102/89/51 53/107/51 52/135/51
f 102/89/51 52/135/51 75/138/51
f 116/89/52 54/107/52 53/135/52
f 116/89/52 53/135/52 102/138/52
f 123/89/53 55/107/53 54/135/53
f 123/89/53 54/135/53 116/138/53
f 125/89/54 56/107/54 55/135/54
f 125/89/54 55/135/54 123/138/54
f 134/89/55 57/107/55 56/135/55
f 134/89/55 56/135/55 125/138/55
f 133/89/56 58/107/56 57/135/56
f 133/89/56 57/135/56 134/138/56
f 132/89/57 59/107/57 58/135/57
f 132/89/57 58/135/57 133/138/57
f 131/89/58 60/107/58 59/135/58
f 131/89/58 59/135/58 132/138/58
f 130/89/59 61/107/59 60/135/59
f 130/89/59 60/135/59 131/138/59
f 129/89/60 62/107/60 61/135/60
f 129/89/60 61/135/60 130/138/60
f 128/89/61 63/107/61 62/135/61
f 128/89/61 62/135/61 129/138/61
f 127/89/62 64/107/62 63/135/62
f 127/89/62 63/135/62 128/138/62
f 64/89/63 127/107/63 126/135/63
f 64/89/63 126/135/63 65/138/63
f 65/89/64 126/107/64 98/135/64
f 65/89/64 98/135/64 27/138/64
