# Blender v2.72 (sub 0) OBJ File: 'feline_greenies_dental_treats.blend'
# www.blender.org
mtllib feline_greenies_dental_treats.mtl
v 0.077500 -0.107500 -0.010000
v 0.077500 -0.107500 0.010000
v -0.077500 -0.107500 0.010000
v -0.077500 -0.107500 -0.010000
v 0.077500 0.107500 -0.010000
v 0.077500 0.107500 0.010000
v -0.077500 0.107500 0.010000
v -0.077500 0.107500 -0.010000
vt 0.147797 0.153147
vt 0.183937 0.183486
vt 0.065913 0.147981
vt 0.120685 0.941308
vt 0.049810 0.940655
vt 0.083909 0.842185
vt 0.777282 0.157592
vt 0.591486 0.147966
vt 0.435281 0.091077
vt 0.458709 0.224359
vt 0.455819 0.803460
vt 0.044192 0.800427
vt 0.282105 0.915330
vt 0.266403 0.838790
vt 0.467381 0.847120
vt 0.540758 0.802358
vt 0.543579 0.225014
vt 0.955998 0.229474
vt 0.179844 0.116804
vt 0.112277 0.828760
vt 0.777411 0.077074
vt 0.043581 0.224011
vt 0.419986 0.905650
vt 0.950905 0.804937
vn 0.000000 -1.000000 0.000000
vn 0.000000 1.000000 -0.000000
vn 1.000000 0.000000 0.000000
vn -0.000000 -0.000000 1.000000
vn -1.000000 -0.000000 -0.000000
vn 0.000000 0.000000 -1.000000
usemtl Material
s off
f 1/1/1 2/2/1 3/3/1
f 5/4/2 8/5/2 7/6/2
f 5/7/3 6/8/3 2/9/3
f 2/10/4 6/11/4 7/12/4
f 7/13/5 8/14/5 4/15/5
f 5/16/6 1/17/6 4/18/6
f 4/19/1 1/1/1 3/3/1
f 6/20/2 5/4/2 7/6/2
f 1/21/3 5/7/3 2/9/3
f 3/22/4 2/10/4 7/12/4
f 3/23/5 7/13/5 4/15/5
f 8/24/6 5/16/6 4/18/6
